<svg width="25" height="25" viewBox="0 0 25 25" fill="none" xmlns="http://www.w3.org/2000/svg">
<path fill-rule="evenodd" clip-rule="evenodd" d="M12.366 4.14595C11.7994 4.14595 11.34 4.6053 11.34 5.17193C11.34 5.73856 11.7994 6.19791 12.366 6.19791C12.9327 6.19791 13.392 5.73856 13.392 5.17193C13.392 4.6053 12.9327 4.14595 12.366 4.14595ZM9.28809 5.17193C9.28809 3.47203 10.6661 2.09399 12.366 2.09399C14.0659 2.09399 15.444 3.47203 15.444 5.17193C15.444 6.87183 14.0659 8.24987 12.366 8.24987C10.6661 8.24987 9.28809 6.87183 9.28809 5.17193ZM12.366 11.3278C11.7994 11.3278 11.34 11.7872 11.34 12.3538C11.34 12.9204 11.7994 13.3798 12.366 13.3798C12.9327 13.3798 13.392 12.9204 13.392 12.3538C13.392 11.7872 12.9327 11.3278 12.366 11.3278ZM9.28809 12.3538C9.28809 10.6539 10.6661 9.27585 12.366 9.27585C14.0659 9.27585 15.444 10.6539 15.444 12.3538C15.444 14.0537 14.0659 15.4317 12.366 15.4317C10.6661 15.4317 9.28809 14.0537 9.28809 12.3538ZM12.366 18.5097C11.7994 18.5097 11.34 18.969 11.34 19.5356C11.34 20.1023 11.7994 20.5616 12.366 20.5616C12.9327 20.5616 13.392 20.1023 13.392 19.5356C13.392 18.969 12.9327 18.5097 12.366 18.5097ZM9.28809 19.5356C9.28809 17.8357 10.6661 16.4577 12.366 16.4577C14.0659 16.4577 15.444 17.8357 15.444 19.5356C15.444 21.2355 14.0659 22.6136 12.366 22.6136C10.6661 22.6136 9.28809 21.2355 9.28809 19.5356Z" fill="#FF5A5F"/>
</svg>
