<svg width="24" height="25" viewBox="0 0 24 25" fill="none" xmlns="http://www.w3.org/2000/svg">
<path d="M9.00171 17.5H5.60611C4.34769 17.5 3.71847 17.5 3.58609 17.4023C3.43735 17.2925 3.40101 17.2277 3.38491 17.0436C3.37057 16.8797 3.75622 16.2486 4.52752 14.9866C5.32386 13.6835 6.00006 11.7862 6.00006 9.1C6.00006 7.61479 6.6322 6.19041 7.75742 5.1402C8.88264 4.09 10.4088 3.5 12.0001 3.5C13.5914 3.5 15.1175 4.09 16.2427 5.1402C17.3679 6.19041 18.0001 7.61479 18.0001 9.1C18.0001 11.7862 18.6763 13.6835 19.4726 14.9866C20.2439 16.2486 20.6296 16.8797 20.6152 17.0436C20.5991 17.2277 20.5628 17.2925 20.414 17.4023C20.2817 17.5 19.6524 17.5 18.394 17.5H15.0001M9.00171 17.5L9.00006 18.5C9.00006 20.1569 10.3432 21.5 12.0001 21.5C13.6569 21.5 15.0001 20.1569 15.0001 18.5V17.5M9.00171 17.5H15.0001" stroke="#FF5A5F" stroke-width="2" stroke-linecap="round" stroke-linejoin="round"/>
</svg>
